# xmcd
#
# Track frame offsets:
#	150
#	12262
#	25512
#	41875
#	58775
#	71825
#	89487
#	101575
#	116150
#	128075
#	144000
#	162250
#	176750
#	194062
#	211700
#	224550
#
# Disc length: 3125
#
# Revision: 2
# Processed by: cddbd v1.5.1PL0 Copyright (c) Steve Scherf et al.
# Submitted via: CDValet v3.31 - Copyright (c) 1997 Greg Leichner
# Normalized: r1:DSETVAR1,TDELIM( - )
#
DISCID=ec0c3310
DTITLE=Various Artist - Country love songs Vol. 1
DYEAR=1900
DGENRE=
TTITLE0=Dolly Parton - Fuel to the flame
TTITLE1=Merle Hagard - To all the girls I loved before
TTITLE2=Debby Boone - You light up my life
TTITLE3=Kriss Kristofferson - Loving her was easy
TTITLE4=Lynn Anderson - Honey come back
TTITLE5=Tonya Tucker - The best of my love
TTITLE6=Charly Rich - The most beautiful girl
TTITLE7=The Bellamy Brothers - If I sad you have a beautiful body would you hold it against me
TTITLE8=Marie Osmond - Paper Roses
TTITLE9=Willy Nelson - Always on my mind
TTITLE10=Karla Bonoff - Someone to lay down beside me
TTITLE11=Lobo - Where were you when I was falling in love
TTITLE12=Valerie Carter - Cowboy Angel
TTITLE13=Bobby Bare - February Snow
TTITLE14=Asleep at the wheel - Blues stay away from me
TTITLE15=Marty Robbins - I can't help it ( if I'm still in love with you)
EXTD=Sony - Columbia\n07 472303 10
EXTT0=
EXTT1=
EXTT2=
EXTT3=
EXTT4=
EXTT5=
EXTT6=
EXTT7=
EXTT8=
EXTT9=
EXTT10=
EXTT11=
EXTT12=
EXTT13=
EXTT14=
EXTT15=
PLAYORDER=
